<?xml version="1.0" encoding="UTF-8" standalone="no"?>
<!DOCTYPE svg PUBLIC "-//W3C//DTD SVG 1.1//EN"
 "http://www.w3.org/Graphics/SVG/1.1/DTD/svg11.dtd">
<!-- Generated by graphviz version 2.43.0 (0)
 -->
<!-- Title: src/Cat.cpp Pages: 1 -->
<svg width="280pt" height="308pt"
 viewBox="0.00 0.00 280.00 308.00" xmlns="http://www.w3.org/2000/svg" xmlns:xlink="http://www.w3.org/1999/xlink">
<g id="graph0" class="graph" transform="scale(1 1) rotate(0) translate(4 304)">
<title>src/Cat.cpp</title>
<!-- Node1 -->
<g id="node1" class="node">
<title>Node1</title>
<g id="a_node1"><a xlink:title="University of Hawaii, College of Engineering.">
<polygon fill="#bfbfbf" stroke="black" points="155,-280.5 155,-299.5 226,-299.5 226,-280.5 155,-280.5"/>
<text text-anchor="middle" x="190.5" y="-287.5" font-family="Helvetica,sans-Serif" font-size="10.00">src/Cat.cpp</text>
</a>
</g>
</g>
<!-- Node2 -->
<g id="node2" class="node">
<title>Node2</title>
<g id="a_node2"><a xlink:href="Cat_8h.html" target="_top" xlink:title="University of Hawaii, College of Engineering.">
<polygon fill="none" stroke="black" points="114.5,-224.5 114.5,-243.5 156.5,-243.5 156.5,-224.5 114.5,-224.5"/>
<text text-anchor="middle" x="135.5" y="-231.5" font-family="Helvetica,sans-Serif" font-size="10.00">Cat.h</text>
</a>
</g>
</g>
<!-- Node1&#45;&gt;Node2 -->
<g id="edge1" class="edge">
<title>Node1&#45;&gt;Node2</title>
<path fill="none" stroke="midnightblue" d="M181.42,-280.08C173.33,-272.14 161.3,-260.34 151.59,-250.8"/>
<polygon fill="midnightblue" stroke="midnightblue" points="154,-248.26 144.41,-243.75 149.1,-253.25 154,-248.26"/>
</g>
<!-- Node11 -->
<g id="node11" class="node">
<title>Node11</title>
<g id="a_node11"><a xlink:href="util_8h.html" target="_top" xlink:title="University of Hawaii, College of Engineering.">
<polygon fill="none" stroke="black" points="203,-168.5 203,-187.5 244,-187.5 244,-168.5 203,-168.5"/>
<text text-anchor="middle" x="223.5" y="-175.5" font-family="Helvetica,sans-Serif" font-size="10.00">util.h</text>
</a>
</g>
</g>
<!-- Node1&#45;&gt;Node11 -->
<g id="edge10" class="edge">
<title>Node1&#45;&gt;Node11</title>
<path fill="none" stroke="midnightblue" d="M193.09,-280.37C198.44,-262.54 210.81,-221.3 218.02,-197.27"/>
<polygon fill="midnightblue" stroke="midnightblue" points="221.4,-198.18 220.92,-187.59 214.7,-196.16 221.4,-198.18"/>
</g>
<!-- Node12 -->
<g id="node12" class="node">
<title>Node12</title>
<g id="a_node12"><a xlink:title=" ">
<polygon fill="none" stroke="#bfbfbf" points="219,-224.5 219,-243.5 272,-243.5 272,-224.5 219,-224.5"/>
<text text-anchor="middle" x="245.5" y="-231.5" font-family="Helvetica,sans-Serif" font-size="10.00">string.h</text>
</a>
</g>
</g>
<!-- Node1&#45;&gt;Node12 -->
<g id="edge12" class="edge">
<title>Node1&#45;&gt;Node12</title>
<path fill="none" stroke="midnightblue" d="M199.58,-280.08C207.67,-272.14 219.7,-260.34 229.41,-250.8"/>
<polygon fill="midnightblue" stroke="midnightblue" points="231.9,-253.25 236.59,-243.75 227,-248.26 231.9,-253.25"/>
</g>
<!-- Node3 -->
<g id="node3" class="node">
<title>Node3</title>
<g id="a_node3"><a xlink:href="Mammal_8h.html" target="_top" xlink:title="University of Hawaii, College of Engineering.">
<polygon fill="none" stroke="black" points="89,-168.5 89,-187.5 158,-187.5 158,-168.5 89,-168.5"/>
<text text-anchor="middle" x="123.5" y="-175.5" font-family="Helvetica,sans-Serif" font-size="10.00">Mammal.h</text>
</a>
</g>
</g>
<!-- Node2&#45;&gt;Node3 -->
<g id="edge2" class="edge">
<title>Node2&#45;&gt;Node3</title>
<path fill="none" stroke="midnightblue" d="M133.52,-224.08C131.93,-216.93 129.64,-206.64 127.65,-197.69"/>
<polygon fill="midnightblue" stroke="midnightblue" points="131.03,-196.75 125.44,-187.75 124.2,-198.27 131.03,-196.75"/>
</g>
<!-- Node4 -->
<g id="node4" class="node">
<title>Node4</title>
<g id="a_node4"><a xlink:href="Animal_8h.html" target="_top" xlink:title="University of Hawaii, College of Engineering.">
<polygon fill="none" stroke="black" points="93.5,-112.5 93.5,-131.5 153.5,-131.5 153.5,-112.5 93.5,-112.5"/>
<text text-anchor="middle" x="123.5" y="-119.5" font-family="Helvetica,sans-Serif" font-size="10.00">Animal.h</text>
</a>
</g>
</g>
<!-- Node3&#45;&gt;Node4 -->
<g id="edge3" class="edge">
<title>Node3&#45;&gt;Node4</title>
<path fill="none" stroke="midnightblue" d="M123.5,-168.08C123.5,-161.01 123.5,-150.86 123.5,-141.99"/>
<polygon fill="midnightblue" stroke="midnightblue" points="127,-141.75 123.5,-131.75 120,-141.75 127,-141.75"/>
</g>
<!-- Node10 -->
<g id="node10" class="node">
<title>Node10</title>
<g id="a_node10"><a xlink:href="Color_8h.html" target="_top" xlink:title="University of Hawaii, College of Engineering.">
<polygon fill="none" stroke="black" points="24,-112.5 24,-131.5 75,-131.5 75,-112.5 24,-112.5"/>
<text text-anchor="middle" x="49.5" y="-119.5" font-family="Helvetica,sans-Serif" font-size="10.00">Color.h</text>
</a>
</g>
</g>
<!-- Node3&#45;&gt;Node10 -->
<g id="edge9" class="edge">
<title>Node3&#45;&gt;Node10</title>
<path fill="none" stroke="midnightblue" d="M111.61,-168.32C100.35,-160.11 83.21,-147.6 69.79,-137.81"/>
<polygon fill="midnightblue" stroke="midnightblue" points="71.75,-134.9 61.61,-131.83 67.62,-140.56 71.75,-134.9"/>
</g>
<!-- Node5 -->
<g id="node5" class="node">
<title>Node5</title>
<g id="a_node5"><a xlink:href="Node_8h.html" target="_top" xlink:title="University of Hawaii, College of Engineering.">
<polygon fill="none" stroke="black" points="158,-56.5 158,-75.5 209,-75.5 209,-56.5 158,-56.5"/>
<text text-anchor="middle" x="183.5" y="-63.5" font-family="Helvetica,sans-Serif" font-size="10.00">Node.h</text>
</a>
</g>
</g>
<!-- Node4&#45;&gt;Node5 -->
<g id="edge4" class="edge">
<title>Node4&#45;&gt;Node5</title>
<path fill="none" stroke="midnightblue" d="M133.14,-112.32C142.01,-104.34 155.37,-92.31 166.11,-82.65"/>
<polygon fill="midnightblue" stroke="midnightblue" points="168.59,-85.13 173.68,-75.83 163.91,-79.92 168.59,-85.13"/>
</g>
<!-- Node7 -->
<g id="node7" class="node">
<title>Node7</title>
<g id="a_node7"><a xlink:href="Gender_8h.html" target="_top" xlink:title="University of Hawaii, College of Engineering.">
<polygon fill="none" stroke="black" points="0,-56.5 0,-75.5 61,-75.5 61,-56.5 0,-56.5"/>
<text text-anchor="middle" x="30.5" y="-63.5" font-family="Helvetica,sans-Serif" font-size="10.00">Gender.h</text>
</a>
</g>
</g>
<!-- Node4&#45;&gt;Node7 -->
<g id="edge6" class="edge">
<title>Node4&#45;&gt;Node7</title>
<path fill="none" stroke="midnightblue" d="M108.56,-112.32C93.91,-103.82 71.37,-90.73 54.26,-80.8"/>
<polygon fill="midnightblue" stroke="midnightblue" points="55.81,-77.65 45.4,-75.65 52.3,-83.7 55.81,-77.65"/>
</g>
<!-- Node8 -->
<g id="node8" class="node">
<title>Node8</title>
<g id="a_node8"><a xlink:href="Weight_8h.html" target="_top" xlink:title="University of Hawaii, College of Engineering.">
<polygon fill="none" stroke="black" points="79.5,-56.5 79.5,-75.5 139.5,-75.5 139.5,-56.5 79.5,-56.5"/>
<text text-anchor="middle" x="109.5" y="-63.5" font-family="Helvetica,sans-Serif" font-size="10.00">Weight.h</text>
</a>
</g>
</g>
<!-- Node4&#45;&gt;Node8 -->
<g id="edge7" class="edge">
<title>Node4&#45;&gt;Node8</title>
<path fill="none" stroke="midnightblue" d="M121.19,-112.08C119.33,-104.93 116.66,-94.64 114.35,-85.69"/>
<polygon fill="midnightblue" stroke="midnightblue" points="117.67,-84.55 111.77,-75.75 110.89,-86.31 117.67,-84.55"/>
</g>
<!-- Node6 -->
<g id="node6" class="node">
<title>Node6</title>
<g id="a_node6"><a xlink:title=" ">
<polygon fill="none" stroke="#bfbfbf" points="181.5,-0.5 181.5,-19.5 241.5,-19.5 241.5,-0.5 181.5,-0.5"/>
<text text-anchor="middle" x="211.5" y="-7.5" font-family="Helvetica,sans-Serif" font-size="10.00">iostream</text>
</a>
</g>
</g>
<!-- Node5&#45;&gt;Node6 -->
<g id="edge5" class="edge">
<title>Node5&#45;&gt;Node6</title>
<path fill="none" stroke="midnightblue" d="M188.12,-56.08C191.96,-48.69 197.52,-37.95 202.26,-28.81"/>
<polygon fill="midnightblue" stroke="midnightblue" points="205.47,-30.24 206.96,-19.75 199.25,-27.02 205.47,-30.24"/>
</g>
<!-- Node9 -->
<g id="node9" class="node">
<title>Node9</title>
<g id="a_node9"><a xlink:title=" ">
<polygon fill="none" stroke="#bfbfbf" points="81,-0.5 81,-19.5 138,-19.5 138,-0.5 81,-0.5"/>
<text text-anchor="middle" x="109.5" y="-7.5" font-family="Helvetica,sans-Serif" font-size="10.00">ostream</text>
</a>
</g>
</g>
<!-- Node8&#45;&gt;Node9 -->
<g id="edge8" class="edge">
<title>Node8&#45;&gt;Node9</title>
<path fill="none" stroke="midnightblue" d="M109.5,-56.08C109.5,-49.01 109.5,-38.86 109.5,-29.99"/>
<polygon fill="midnightblue" stroke="midnightblue" points="113,-29.75 109.5,-19.75 106,-29.75 113,-29.75"/>
</g>
<!-- Node11&#45;&gt;Node6 -->
<g id="edge11" class="edge">
<title>Node11&#45;&gt;Node6</title>
<path fill="none" stroke="midnightblue" d="M223.48,-168.47C223.36,-148.66 222.63,-98.06 218.5,-56 217.64,-47.24 216.2,-37.58 214.85,-29.47"/>
<polygon fill="midnightblue" stroke="midnightblue" points="218.3,-28.84 213.13,-19.59 211.4,-30.04 218.3,-28.84"/>
</g>
</g>
</svg>
