<?xml version="1.0" encoding="UTF-8" standalone="no"?>
<!DOCTYPE svg PUBLIC "-//W3C//DTD SVG 1.1//EN"
 "http://www.w3.org/Graphics/SVG/1.1/DTD/svg11.dtd">
<!-- Generated by graphviz version 2.43.0 (0)
 -->
<!-- Title: SinglyLinkedList Pages: 1 -->
<svg width="436pt" height="442pt"
 viewBox="0.00 0.00 436.00 442.00" xmlns="http://www.w3.org/2000/svg" xmlns:xlink="http://www.w3.org/1999/xlink">
<g id="graph0" class="graph" transform="scale(1 1) rotate(0) translate(4 438)">
<title>SinglyLinkedList</title>
<!-- Node1 -->
<g id="node1" class="node">
<title>Node1</title>
<g id="a_node1"><a xlink:title=" ">
<polygon fill="#bfbfbf" stroke="black" points="40.5,-0.5 40.5,-101.5 335.5,-101.5 335.5,-0.5 40.5,-0.5"/>
<text text-anchor="middle" x="188" y="-89.5" font-family="Helvetica,sans-Serif" font-size="10.00">SinglyLinkedList</text>
<polyline fill="none" stroke="black" points="40.5,-82.5 335.5,-82.5 "/>
<text text-anchor="middle" x="188" y="-70.5" font-family="Helvetica,sans-Serif" font-size="10.00"> </text>
<polyline fill="none" stroke="black" points="40.5,-63.5 335.5,-63.5 "/>
<text text-anchor="start" x="48.5" y="-51.5" font-family="Helvetica,sans-Serif" font-size="10.00">+ void push_front(Node *newNode)</text>
<text text-anchor="start" x="48.5" y="-40.5" font-family="Helvetica,sans-Serif" font-size="10.00">+ Node * pop_front() noexcept override</text>
<text text-anchor="start" x="48.5" y="-29.5" font-family="Helvetica,sans-Serif" font-size="10.00">+ void insert_after(Node *currentNode, Node *newNode)</text>
<text text-anchor="start" x="48.5" y="-18.5" font-family="Helvetica,sans-Serif" font-size="10.00">+ void dump() const noexcept override</text>
<text text-anchor="start" x="48.5" y="-7.5" font-family="Helvetica,sans-Serif" font-size="10.00">+ bool validate() const noexcept override</text>
</a>
</g>
</g>
<!-- Node2 -->
<g id="node2" class="node">
<title>Node2</title>
<g id="a_node2"><a xlink:href="classList.html" target="_top" xlink:title=" ">
<polygon fill="none" stroke="#bfbfbf" points="68.5,-139.5 68.5,-295.5 307.5,-295.5 307.5,-139.5 68.5,-139.5"/>
<text text-anchor="middle" x="188" y="-283.5" font-family="Helvetica,sans-Serif" font-size="10.00">List</text>
<polyline fill="none" stroke="#bfbfbf" points="68.5,-276.5 307.5,-276.5 "/>
<text text-anchor="start" x="76.5" y="-264.5" font-family="Helvetica,sans-Serif" font-size="10.00"># unsigned int count</text>
<polyline fill="none" stroke="#bfbfbf" points="68.5,-257.5 307.5,-257.5 "/>
<text text-anchor="start" x="76.5" y="-245.5" font-family="Helvetica,sans-Serif" font-size="10.00">+ bool empty()</text>
<text text-anchor="start" x="76.5" y="-234.5" font-family="Helvetica,sans-Serif" font-size="10.00">+ unsigned int size()</text>
<text text-anchor="start" x="76.5" y="-223.5" font-family="Helvetica,sans-Serif" font-size="10.00">+ bool isIn(Node *aNode)</text>
<text text-anchor="start" x="76.5" y="-212.5" font-family="Helvetica,sans-Serif" font-size="10.00">+ bool isSorted()</text>
<text text-anchor="start" x="76.5" y="-201.5" font-family="Helvetica,sans-Serif" font-size="10.00">+ Node * get_first()</text>
<text text-anchor="start" x="76.5" y="-190.5" font-family="Helvetica,sans-Serif" font-size="10.00">+ void deleteAllNodes() noexcept</text>
<text text-anchor="start" x="76.5" y="-179.5" font-family="Helvetica,sans-Serif" font-size="10.00">+ virtual Node * pop_front() noexcept=0</text>
<text text-anchor="start" x="76.5" y="-168.5" font-family="Helvetica,sans-Serif" font-size="10.00">+ virtual void dump() const noexcept=0</text>
<text text-anchor="start" x="76.5" y="-157.5" font-family="Helvetica,sans-Serif" font-size="10.00">+ virtual bool validate() const noexcept=0</text>
<text text-anchor="start" x="76.5" y="-146.5" font-family="Helvetica,sans-Serif" font-size="10.00">+ static Node * get_next(Node *currentNode)</text>
</a>
</g>
</g>
<!-- Node2&#45;&gt;Node1 -->
<g id="edge1" class="edge">
<title>Node2&#45;&gt;Node1</title>
<path fill="none" stroke="midnightblue" d="M188,-128.96C188,-119.66 188,-110.46 188,-101.82"/>
<polygon fill="none" stroke="midnightblue" points="184.5,-129.07 188,-139.07 191.5,-129.07 184.5,-129.07"/>
</g>
<!-- Node3 -->
<g id="node3" class="node">
<title>Node3</title>
<g id="a_node3"><a xlink:href="classNode.html" target="_top" xlink:title=" ">
<polygon fill="none" stroke="#bfbfbf" points="0,-343.5 0,-433.5 376,-433.5 376,-343.5 0,-343.5"/>
<text text-anchor="middle" x="188" y="-421.5" font-family="Helvetica,sans-Serif" font-size="10.00">Node</text>
<polyline fill="none" stroke="#bfbfbf" points="0,-414.5 376,-414.5 "/>
<text text-anchor="middle" x="188" y="-402.5" font-family="Helvetica,sans-Serif" font-size="10.00"> </text>
<polyline fill="none" stroke="#bfbfbf" points="0,-395.5 376,-395.5 "/>
<text text-anchor="start" x="8" y="-383.5" font-family="Helvetica,sans-Serif" font-size="10.00">+ virtual void dump()</text>
<text text-anchor="start" x="8" y="-372.5" font-family="Helvetica,sans-Serif" font-size="10.00">+ virtual bool validate()</text>
<text text-anchor="start" x="8" y="-361.5" font-family="Helvetica,sans-Serif" font-size="10.00">+ virtual bool operator&gt;(const Node &amp;rightSide)</text>
<text text-anchor="start" x="8" y="-350.5" font-family="Helvetica,sans-Serif" font-size="10.00"># static bool compareByAddress(const Node *node1, const Node *node2)</text>
</a>
</g>
</g>
<!-- Node3&#45;&gt;Node2 -->
<g id="edge2" class="edge">
<title>Node3&#45;&gt;Node2</title>
<path fill="none" stroke="#404040" d="M188,-343.1C188,-332.17 188,-320.07 188,-307.85"/>
<polygon fill="none" stroke="#404040" points="188,-307.61 184,-301.61 188,-295.61 192,-301.61 188,-307.61"/>
<text text-anchor="middle" x="206" y="-317" font-family="Helvetica,sans-Serif" font-size="10.00"> #head</text>
</g>
<!-- Node3&#45;&gt;Node3 -->
<g id="edge3" class="edge">
<title>Node3&#45;&gt;Node3</title>
<path fill="none" stroke="#404040" d="M376.15,-397.27C387.31,-395.18 394,-392.25 394,-388.5 394,-386.39 391.88,-384.54 388.04,-382.95"/>
<polygon fill="none" stroke="#404040" points="387.73,-382.87 380.89,-385.16 376.15,-379.73 382.98,-377.44 387.73,-382.87"/>
<text text-anchor="middle" x="411" y="-386" font-family="Helvetica,sans-Serif" font-size="10.00"> #next</text>
</g>
</g>
</svg>
