<?xml version="1.0" encoding="UTF-8" standalone="no"?>
<!DOCTYPE svg PUBLIC "-//W3C//DTD SVG 1.1//EN"
 "http://www.w3.org/Graphics/SVG/1.1/DTD/svg11.dtd">
<!-- Generated by graphviz version 2.43.0 (0)
 -->
<!-- Title: List Pages: 1 -->
<svg width="436pt" height="303pt"
 viewBox="0.00 0.00 436.00 303.00" xmlns="http://www.w3.org/2000/svg" xmlns:xlink="http://www.w3.org/1999/xlink">
<g id="graph0" class="graph" transform="scale(1 1) rotate(0) translate(4 299)">
<title>List</title>
<!-- Node1 -->
<g id="node1" class="node">
<title>Node1</title>
<g id="a_node1"><a xlink:title=" ">
<polygon fill="#bfbfbf" stroke="black" points="68.5,-0.5 68.5,-156.5 307.5,-156.5 307.5,-0.5 68.5,-0.5"/>
<text text-anchor="middle" x="188" y="-144.5" font-family="Helvetica,sans-Serif" font-size="10.00">List</text>
<polyline fill="none" stroke="black" points="68.5,-137.5 307.5,-137.5 "/>
<text text-anchor="start" x="76.5" y="-125.5" font-family="Helvetica,sans-Serif" font-size="10.00"># unsigned int count</text>
<polyline fill="none" stroke="black" points="68.5,-118.5 307.5,-118.5 "/>
<text text-anchor="start" x="76.5" y="-106.5" font-family="Helvetica,sans-Serif" font-size="10.00">+ bool empty()</text>
<text text-anchor="start" x="76.5" y="-95.5" font-family="Helvetica,sans-Serif" font-size="10.00">+ unsigned int size()</text>
<text text-anchor="start" x="76.5" y="-84.5" font-family="Helvetica,sans-Serif" font-size="10.00">+ bool isIn(Node *aNode)</text>
<text text-anchor="start" x="76.5" y="-73.5" font-family="Helvetica,sans-Serif" font-size="10.00">+ bool isSorted()</text>
<text text-anchor="start" x="76.5" y="-62.5" font-family="Helvetica,sans-Serif" font-size="10.00">+ Node * get_first()</text>
<text text-anchor="start" x="76.5" y="-51.5" font-family="Helvetica,sans-Serif" font-size="10.00">+ void deleteAllNodes() noexcept</text>
<text text-anchor="start" x="76.5" y="-40.5" font-family="Helvetica,sans-Serif" font-size="10.00">+ virtual Node * pop_front() noexcept=0</text>
<text text-anchor="start" x="76.5" y="-29.5" font-family="Helvetica,sans-Serif" font-size="10.00">+ virtual void dump() const noexcept=0</text>
<text text-anchor="start" x="76.5" y="-18.5" font-family="Helvetica,sans-Serif" font-size="10.00">+ virtual bool validate() const noexcept=0</text>
<text text-anchor="start" x="76.5" y="-7.5" font-family="Helvetica,sans-Serif" font-size="10.00">+ static Node * get_next(Node *currentNode)</text>
</a>
</g>
</g>
<!-- Node2 -->
<g id="node2" class="node">
<title>Node2</title>
<g id="a_node2"><a xlink:href="classNode.html" target="_top" xlink:title=" ">
<polygon fill="none" stroke="#bfbfbf" points="0,-204.5 0,-294.5 376,-294.5 376,-204.5 0,-204.5"/>
<text text-anchor="middle" x="188" y="-282.5" font-family="Helvetica,sans-Serif" font-size="10.00">Node</text>
<polyline fill="none" stroke="#bfbfbf" points="0,-275.5 376,-275.5 "/>
<text text-anchor="middle" x="188" y="-263.5" font-family="Helvetica,sans-Serif" font-size="10.00"> </text>
<polyline fill="none" stroke="#bfbfbf" points="0,-256.5 376,-256.5 "/>
<text text-anchor="start" x="8" y="-244.5" font-family="Helvetica,sans-Serif" font-size="10.00">+ virtual void dump()</text>
<text text-anchor="start" x="8" y="-233.5" font-family="Helvetica,sans-Serif" font-size="10.00">+ virtual bool validate()</text>
<text text-anchor="start" x="8" y="-222.5" font-family="Helvetica,sans-Serif" font-size="10.00">+ virtual bool operator&gt;(const Node &amp;rightSide)</text>
<text text-anchor="start" x="8" y="-211.5" font-family="Helvetica,sans-Serif" font-size="10.00"># static bool compareByAddress(const Node *node1, const Node *node2)</text>
</a>
</g>
</g>
<!-- Node2&#45;&gt;Node1 -->
<g id="edge1" class="edge">
<title>Node2&#45;&gt;Node1</title>
<path fill="none" stroke="#404040" d="M188,-204.1C188,-193.17 188,-181.07 188,-168.85"/>
<polygon fill="none" stroke="#404040" points="188,-168.61 184,-162.61 188,-156.61 192,-162.61 188,-168.61"/>
<text text-anchor="middle" x="206" y="-178" font-family="Helvetica,sans-Serif" font-size="10.00"> #head</text>
</g>
<!-- Node2&#45;&gt;Node2 -->
<g id="edge2" class="edge">
<title>Node2&#45;&gt;Node2</title>
<path fill="none" stroke="#404040" d="M376.15,-258.27C387.31,-256.18 394,-253.25 394,-249.5 394,-247.39 391.88,-245.54 388.04,-243.95"/>
<polygon fill="none" stroke="#404040" points="387.73,-243.87 380.89,-246.16 376.15,-240.73 382.98,-238.44 387.73,-243.87"/>
<text text-anchor="middle" x="411" y="-247" font-family="Helvetica,sans-Serif" font-size="10.00"> #next</text>
</g>
</g>
</svg>
