<?xml version="1.0" encoding="UTF-8" standalone="no"?>
<!DOCTYPE svg PUBLIC "-//W3C//DTD SVG 1.1//EN"
 "http://www.w3.org/Graphics/SVG/1.1/DTD/svg11.dtd">
<!-- Generated by graphviz version 2.43.0 (0)
 -->
<!-- Title: Node Pages: 1 -->
<svg width="436pt" height="99pt"
 viewBox="0.00 0.00 436.00 99.00" xmlns="http://www.w3.org/2000/svg" xmlns:xlink="http://www.w3.org/1999/xlink">
<g id="graph0" class="graph" transform="scale(1 1) rotate(0) translate(4 95)">
<title>Node</title>
<!-- Node1 -->
<g id="node1" class="node">
<title>Node1</title>
<g id="a_node1"><a xlink:title=" ">
<polygon fill="#bfbfbf" stroke="black" points="0,-0.5 0,-90.5 376,-90.5 376,-0.5 0,-0.5"/>
<text text-anchor="middle" x="188" y="-78.5" font-family="Helvetica,sans-Serif" font-size="10.00">Node</text>
<polyline fill="none" stroke="black" points="0,-71.5 376,-71.5 "/>
<text text-anchor="middle" x="188" y="-59.5" font-family="Helvetica,sans-Serif" font-size="10.00"> </text>
<polyline fill="none" stroke="black" points="0,-52.5 376,-52.5 "/>
<text text-anchor="start" x="8" y="-40.5" font-family="Helvetica,sans-Serif" font-size="10.00">+ virtual void dump()</text>
<text text-anchor="start" x="8" y="-29.5" font-family="Helvetica,sans-Serif" font-size="10.00">+ virtual bool validate()</text>
<text text-anchor="start" x="8" y="-18.5" font-family="Helvetica,sans-Serif" font-size="10.00">+ virtual bool operator&gt;(const Node &amp;rightSide)</text>
<text text-anchor="start" x="8" y="-7.5" font-family="Helvetica,sans-Serif" font-size="10.00"># static bool compareByAddress(const Node *node1, const Node *node2)</text>
</a>
</g>
</g>
<!-- Node1&#45;&gt;Node1 -->
<g id="edge1" class="edge">
<title>Node1&#45;&gt;Node1</title>
<path fill="none" stroke="#404040" d="M376.15,-57.11C387.31,-54.34 394,-50.47 394,-45.5 394,-42.63 391.76,-40.12 387.72,-37.99"/>
<polygon fill="none" stroke="#404040" points="387.46,-37.89 380.47,-39.66 376.15,-33.89 383.14,-32.12 387.46,-37.89"/>
<text text-anchor="middle" x="411" y="-43" font-family="Helvetica,sans-Serif" font-size="10.00"> #next</text>
</g>
</g>
</svg>
