<?xml version="1.0" encoding="UTF-8" standalone="no"?>
<!DOCTYPE svg PUBLIC "-//W3C//DTD SVG 1.1//EN"
 "http://www.w3.org/Graphics/SVG/1.1/DTD/svg11.dtd">
<!-- Generated by graphviz version 2.43.0 (0)
 -->
<!-- Title: src/Color.h Pages: 1 -->
<svg width="261pt" height="196pt"
 viewBox="0.00 0.00 261.18 196.00" xmlns="http://www.w3.org/2000/svg" xmlns:xlink="http://www.w3.org/1999/xlink">
<g id="graph0" class="graph" transform="scale(1 1) rotate(0) translate(4 192)">
<title>src/Color.h</title>
<!-- Node1 -->
<g id="node1" class="node">
<title>Node1</title>
<g id="a_node1"><a xlink:title="University of Hawaii, College of Engineering.">
<polygon fill="#bfbfbf" stroke="black" points="153.5,-168.5 153.5,-187.5 221.5,-187.5 221.5,-168.5 153.5,-168.5"/>
<text text-anchor="middle" x="187.5" y="-175.5" font-family="Helvetica,sans-Serif" font-size="10.00">src/Color.h</text>
</a>
</g>
</g>
<!-- Node2 -->
<g id="node2" class="node">
<title>Node2</title>
<g id="a_node2"><a xlink:href="Mammal_8h.html" target="_top" xlink:title="University of Hawaii, College of Engineering.">
<polygon fill="none" stroke="black" points="106.5,-112.5 106.5,-131.5 192.5,-131.5 192.5,-112.5 106.5,-112.5"/>
<text text-anchor="middle" x="149.5" y="-119.5" font-family="Helvetica,sans-Serif" font-size="10.00">src/Mammal.h</text>
</a>
</g>
</g>
<!-- Node1&#45;&gt;Node2 -->
<g id="edge1" class="edge">
<title>Node1&#45;&gt;Node2</title>
<path fill="none" stroke="midnightblue" d="M175.44,-159.86C168.86,-150.5 160.99,-139.33 155.66,-131.75"/>
<polygon fill="midnightblue" stroke="midnightblue" points="172.61,-161.92 181.23,-168.08 178.33,-157.89 172.61,-161.92"/>
</g>
<!-- Node5 -->
<g id="node5" class="node">
<title>Node5</title>
<g id="a_node5"><a xlink:href="main_8cpp.html" target="_top" xlink:title="University of Hawaii, College of Engineering.">
<polygon fill="none" stroke="black" points="89,-0.5 89,-19.5 168,-19.5 168,-0.5 89,-0.5"/>
<text text-anchor="middle" x="128.5" y="-7.5" font-family="Helvetica,sans-Serif" font-size="10.00">src/main.cpp</text>
</a>
</g>
</g>
<!-- Node1&#45;&gt;Node5 -->
<g id="edge7" class="edge">
<title>Node1&#45;&gt;Node5</title>
<path fill="none" stroke="midnightblue" d="M205.14,-161.38C229.94,-137.5 269.54,-91 245.5,-56 228.25,-30.88 194.88,-19.78 168.17,-14.87"/>
<polygon fill="midnightblue" stroke="midnightblue" points="202.65,-158.92 197.71,-168.3 207.41,-164.05 202.65,-158.92"/>
</g>
<!-- Node3 -->
<g id="node3" class="node">
<title>Node3</title>
<g id="a_node3"><a xlink:href="Cat_8h.html" target="_top" xlink:title="University of Hawaii, College of Engineering.">
<polygon fill="none" stroke="black" points="23,-56.5 23,-75.5 82,-75.5 82,-56.5 23,-56.5"/>
<text text-anchor="middle" x="52.5" y="-63.5" font-family="Helvetica,sans-Serif" font-size="10.00">src/Cat.h</text>
</a>
</g>
</g>
<!-- Node2&#45;&gt;Node3 -->
<g id="edge2" class="edge">
<title>Node2&#45;&gt;Node3</title>
<path fill="none" stroke="midnightblue" d="M125.16,-107.45C107.26,-97.48 83.45,-84.23 68.05,-75.65"/>
<polygon fill="midnightblue" stroke="midnightblue" points="123.48,-110.52 133.92,-112.32 126.88,-104.4 123.48,-110.52"/>
</g>
<!-- Node2&#45;&gt;Node5 -->
<g id="edge6" class="edge">
<title>Node2&#45;&gt;Node5</title>
<path fill="none" stroke="midnightblue" d="M139.64,-103.29C135.68,-95.22 131.57,-85.39 129.5,-76 125.13,-56.16 126.41,-32.09 127.56,-19.54"/>
<polygon fill="midnightblue" stroke="midnightblue" points="136.67,-105.16 144.41,-112.4 142.87,-101.91 136.67,-105.16"/>
</g>
<!-- Node6 -->
<g id="node6" class="node">
<title>Node6</title>
<g id="a_node6"><a xlink:href="Mammal_8cpp.html" target="_top" xlink:title="University of Hawaii, College of Engineering.">
<polygon fill="none" stroke="black" points="138.5,-56.5 138.5,-75.5 236.5,-75.5 236.5,-56.5 138.5,-56.5"/>
<text text-anchor="middle" x="187.5" y="-63.5" font-family="Helvetica,sans-Serif" font-size="10.00">src/Mammal.cpp</text>
</a>
</g>
</g>
<!-- Node2&#45;&gt;Node6 -->
<g id="edge5" class="edge">
<title>Node2&#45;&gt;Node6</title>
<path fill="none" stroke="midnightblue" d="M161.56,-103.86C168.14,-94.5 176.01,-83.33 181.34,-75.75"/>
<polygon fill="midnightblue" stroke="midnightblue" points="158.67,-101.89 155.77,-112.08 164.39,-105.92 158.67,-101.89"/>
</g>
<!-- Node4 -->
<g id="node4" class="node">
<title>Node4</title>
<g id="a_node4"><a xlink:href="Cat_8cpp.html" target="_top" xlink:title="University of Hawaii, College of Engineering.">
<polygon fill="none" stroke="black" points="0,-0.5 0,-19.5 71,-19.5 71,-0.5 0,-0.5"/>
<text text-anchor="middle" x="35.5" y="-7.5" font-family="Helvetica,sans-Serif" font-size="10.00">src/Cat.cpp</text>
</a>
</g>
</g>
<!-- Node3&#45;&gt;Node4 -->
<g id="edge3" class="edge">
<title>Node3&#45;&gt;Node4</title>
<path fill="none" stroke="midnightblue" d="M46.64,-46.4C43.8,-37.36 40.52,-26.94 38.25,-19.75"/>
<polygon fill="midnightblue" stroke="midnightblue" points="43.35,-47.6 49.69,-56.08 50.03,-45.49 43.35,-47.6"/>
</g>
<!-- Node3&#45;&gt;Node5 -->
<g id="edge4" class="edge">
<title>Node3&#45;&gt;Node5</title>
<path fill="none" stroke="midnightblue" d="M73.08,-50.38C86.81,-40.62 104.43,-28.11 116.07,-19.83"/>
<polygon fill="midnightblue" stroke="midnightblue" points="70.84,-47.68 64.71,-56.32 74.89,-53.38 70.84,-47.68"/>
</g>
</g>
</svg>
