<?xml version="1.0" encoding="UTF-8" standalone="no"?>
<!DOCTYPE svg PUBLIC "-//W3C//DTD SVG 1.1//EN"
 "http://www.w3.org/Graphics/SVG/1.1/DTD/svg11.dtd">
<!-- Generated by graphviz version 2.43.0 (0)
 -->
<!-- Title: src/Gender.h Pages: 1 -->
<svg width="275pt" height="252pt"
 viewBox="0.00 0.00 274.50 252.00" xmlns="http://www.w3.org/2000/svg" xmlns:xlink="http://www.w3.org/1999/xlink">
<g id="graph0" class="graph" transform="scale(1 1) rotate(0) translate(4 248)">
<title>src/Gender.h</title>
<!-- Node1 -->
<g id="node1" class="node">
<title>Node1</title>
<g id="a_node1"><a xlink:title="University of Hawaii, College of Engineering.">
<polygon fill="#bfbfbf" stroke="black" points="188.5,-224.5 188.5,-243.5 266.5,-243.5 266.5,-224.5 188.5,-224.5"/>
<text text-anchor="middle" x="227.5" y="-231.5" font-family="Helvetica,sans-Serif" font-size="10.00">src/Gender.h</text>
</a>
</g>
</g>
<!-- Node2 -->
<g id="node2" class="node">
<title>Node2</title>
<g id="a_node2"><a xlink:href="Animal_8h.html" target="_top" xlink:title="University of Hawaii, College of Engineering.">
<polygon fill="none" stroke="black" points="156,-168.5 156,-187.5 233,-187.5 233,-168.5 156,-168.5"/>
<text text-anchor="middle" x="194.5" y="-175.5" font-family="Helvetica,sans-Serif" font-size="10.00">src/Animal.h</text>
</a>
</g>
</g>
<!-- Node1&#45;&gt;Node2 -->
<g id="edge1" class="edge">
<title>Node1&#45;&gt;Node2</title>
<path fill="none" stroke="midnightblue" d="M216.67,-215.27C211.03,-206.05 204.38,-195.17 199.85,-187.75"/>
<polygon fill="midnightblue" stroke="midnightblue" points="213.85,-217.38 222.05,-224.08 219.82,-213.73 213.85,-217.38"/>
</g>
<!-- Node7 -->
<g id="node7" class="node">
<title>Node7</title>
<g id="a_node7"><a xlink:href="main_8cpp.html" target="_top" xlink:title="University of Hawaii, College of Engineering.">
<polygon fill="none" stroke="black" points="148,-0.5 148,-19.5 227,-19.5 227,-0.5 148,-0.5"/>
<text text-anchor="middle" x="187.5" y="-7.5" font-family="Helvetica,sans-Serif" font-size="10.00">src/main.cpp</text>
</a>
</g>
</g>
<!-- Node1&#45;&gt;Node7 -->
<g id="edge10" class="edge">
<title>Node1&#45;&gt;Node7</title>
<path fill="none" stroke="midnightblue" d="M235.14,-214.98C248.03,-181.7 270.25,-109.14 244.5,-56 236.47,-39.43 219.06,-27.13 205.58,-19.61"/>
<polygon fill="midnightblue" stroke="midnightblue" points="231.87,-213.75 231.36,-224.33 238.36,-216.37 231.87,-213.75"/>
</g>
<!-- Node3 -->
<g id="node3" class="node">
<title>Node3</title>
<g id="a_node3"><a xlink:href="Animal_8cpp.html" target="_top" xlink:title="University of Hawaii, College of Engineering.">
<polygon fill="none" stroke="black" points="20,-112.5 20,-131.5 109,-131.5 109,-112.5 20,-112.5"/>
<text text-anchor="middle" x="64.5" y="-119.5" font-family="Helvetica,sans-Serif" font-size="10.00">src/Animal.cpp</text>
</a>
</g>
</g>
<!-- Node2&#45;&gt;Node3 -->
<g id="edge2" class="edge">
<title>Node2&#45;&gt;Node3</title>
<path fill="none" stroke="midnightblue" d="M164.41,-164.5C140.04,-154.38 106.36,-140.39 85,-131.52"/>
<polygon fill="midnightblue" stroke="midnightblue" points="163.32,-167.84 173.9,-168.44 166.01,-161.38 163.32,-167.84"/>
</g>
<!-- Node4 -->
<g id="node4" class="node">
<title>Node4</title>
<g id="a_node4"><a xlink:href="Mammal_8h.html" target="_top" xlink:title="University of Hawaii, College of Engineering.">
<polygon fill="none" stroke="black" points="127.5,-112.5 127.5,-131.5 213.5,-131.5 213.5,-112.5 127.5,-112.5"/>
<text text-anchor="middle" x="170.5" y="-119.5" font-family="Helvetica,sans-Serif" font-size="10.00">src/Mammal.h</text>
</a>
</g>
</g>
<!-- Node2&#45;&gt;Node4 -->
<g id="edge3" class="edge">
<title>Node2&#45;&gt;Node4</title>
<path fill="none" stroke="midnightblue" d="M186.36,-158.69C182.32,-149.59 177.62,-139.01 174.39,-131.75"/>
<polygon fill="midnightblue" stroke="midnightblue" points="183.28,-160.37 190.54,-168.08 189.67,-157.52 183.28,-160.37"/>
</g>
<!-- Node2&#45;&gt;Node7 -->
<g id="edge9" class="edge">
<title>Node2&#45;&gt;Node7</title>
<path fill="none" stroke="midnightblue" d="M207.52,-160.15C213.08,-152.07 219.06,-141.99 222.5,-132 233.53,-99.96 240.74,-87.6 228.5,-56 222.62,-40.82 208.98,-27.62 199.04,-19.51"/>
<polygon fill="midnightblue" stroke="midnightblue" points="204.64,-158.16 201.59,-168.31 210.3,-162.28 204.64,-158.16"/>
</g>
<!-- Node5 -->
<g id="node5" class="node">
<title>Node5</title>
<g id="a_node5"><a xlink:href="Cat_8h.html" target="_top" xlink:title="University of Hawaii, College of Engineering.">
<polygon fill="none" stroke="black" points="6,-56.5 6,-75.5 65,-75.5 65,-56.5 6,-56.5"/>
<text text-anchor="middle" x="35.5" y="-63.5" font-family="Helvetica,sans-Serif" font-size="10.00">src/Cat.h</text>
</a>
</g>
</g>
<!-- Node4&#45;&gt;Node5 -->
<g id="edge4" class="edge">
<title>Node4&#45;&gt;Node5</title>
<path fill="none" stroke="midnightblue" d="M139.59,-108.64C114.26,-98.5 79.07,-84.43 56.79,-75.52"/>
<polygon fill="midnightblue" stroke="midnightblue" points="138.52,-111.98 149.11,-112.44 141.12,-105.48 138.52,-111.98"/>
</g>
<!-- Node4&#45;&gt;Node7 -->
<g id="edge8" class="edge">
<title>Node4&#45;&gt;Node7</title>
<path fill="none" stroke="midnightblue" d="M143.78,-107.33C123.62,-95.06 101.21,-75.95 112.5,-56 122.67,-38.03 143.21,-26.45 160.22,-19.55"/>
<polygon fill="midnightblue" stroke="midnightblue" points="142.05,-110.38 152.47,-112.31 145.53,-104.3 142.05,-110.38"/>
</g>
<!-- Node8 -->
<g id="node8" class="node">
<title>Node8</title>
<g id="a_node8"><a xlink:href="Mammal_8cpp.html" target="_top" xlink:title="University of Hawaii, College of Engineering.">
<polygon fill="none" stroke="black" points="121.5,-56.5 121.5,-75.5 219.5,-75.5 219.5,-56.5 121.5,-56.5"/>
<text text-anchor="middle" x="170.5" y="-63.5" font-family="Helvetica,sans-Serif" font-size="10.00">src/Mammal.cpp</text>
</a>
</g>
</g>
<!-- Node4&#45;&gt;Node8 -->
<g id="edge7" class="edge">
<title>Node4&#45;&gt;Node8</title>
<path fill="none" stroke="midnightblue" d="M170.5,-101.8C170.5,-92.91 170.5,-82.78 170.5,-75.75"/>
<polygon fill="midnightblue" stroke="midnightblue" points="167,-102.08 170.5,-112.08 174,-102.08 167,-102.08"/>
</g>
<!-- Node6 -->
<g id="node6" class="node">
<title>Node6</title>
<g id="a_node6"><a xlink:href="Cat_8cpp.html" target="_top" xlink:title="University of Hawaii, College of Engineering.">
<polygon fill="none" stroke="black" points="0,-0.5 0,-19.5 71,-19.5 71,-0.5 0,-0.5"/>
<text text-anchor="middle" x="35.5" y="-7.5" font-family="Helvetica,sans-Serif" font-size="10.00">src/Cat.cpp</text>
</a>
</g>
</g>
<!-- Node5&#45;&gt;Node6 -->
<g id="edge5" class="edge">
<title>Node5&#45;&gt;Node6</title>
<path fill="none" stroke="midnightblue" d="M35.5,-45.8C35.5,-36.91 35.5,-26.78 35.5,-19.75"/>
<polygon fill="midnightblue" stroke="midnightblue" points="32,-46.08 35.5,-56.08 39,-46.08 32,-46.08"/>
</g>
<!-- Node5&#45;&gt;Node7 -->
<g id="edge6" class="edge">
<title>Node5&#45;&gt;Node7</title>
<path fill="none" stroke="midnightblue" d="M69.17,-53.04C97.77,-42.88 138.11,-28.55 163.53,-19.52"/>
<polygon fill="midnightblue" stroke="midnightblue" points="67.84,-49.8 59.58,-56.44 70.18,-56.39 67.84,-49.8"/>
</g>
</g>
</svg>
