<?xml version="1.0" encoding="UTF-8" standalone="no"?>
<!DOCTYPE svg PUBLIC "-//W3C//DTD SVG 1.1//EN"
 "http://www.w3.org/Graphics/SVG/1.1/DTD/svg11.dtd">
<!-- Generated by graphviz version 2.43.0 (0)
 -->
<!-- Title: Graphical Class Hierarchy Pages: 1 -->
<svg width="224pt" height="66pt"
 viewBox="0.00 0.00 224.00 66.00" xmlns="http://www.w3.org/2000/svg" xmlns:xlink="http://www.w3.org/1999/xlink">
<g id="graph0" class="graph" transform="scale(1 1) rotate(0) translate(4 62)">
<title>Graphical Class Hierarchy</title>
<!-- Node0 -->
<g id="node1" class="node">
<title>Node0</title>
<g id="a_node1"><a xlink:href="classAnimal.html" target="_top" xlink:title=" ">
<polygon fill="none" stroke="black" points="0,-38.5 0,-57.5 51,-57.5 51,-38.5 0,-38.5"/>
<text text-anchor="middle" x="25.5" y="-45.5" font-family="Helvetica,sans-Serif" font-size="10.00">Animal</text>
</a>
</g>
</g>
<!-- Node1 -->
<g id="node2" class="node">
<title>Node1</title>
<g id="a_node2"><a xlink:href="classMammal.html" target="_top" xlink:title=" ">
<polygon fill="none" stroke="black" points="87,-38.5 87,-57.5 147,-57.5 147,-38.5 87,-38.5"/>
<text text-anchor="middle" x="117" y="-45.5" font-family="Helvetica,sans-Serif" font-size="10.00">Mammal</text>
</a>
</g>
</g>
<!-- Node0&#45;&gt;Node1 -->
<g id="edge1" class="edge">
<title>Node0&#45;&gt;Node1</title>
<path fill="none" stroke="midnightblue" d="M61.63,-48C69.95,-48 78.74,-48 86.77,-48"/>
<polygon fill="midnightblue" stroke="midnightblue" points="61.43,-44.5 51.43,-48 61.43,-51.5 61.43,-44.5"/>
</g>
<!-- Node2 -->
<g id="node3" class="node">
<title>Node2</title>
<g id="a_node3"><a xlink:href="classCat.html" target="_top" xlink:title=" ">
<polygon fill="none" stroke="black" points="183,-19.5 183,-38.5 216,-38.5 216,-19.5 183,-19.5"/>
<text text-anchor="middle" x="199.5" y="-26.5" font-family="Helvetica,sans-Serif" font-size="10.00">Cat</text>
</a>
</g>
</g>
<!-- Node1&#45;&gt;Node2 -->
<g id="edge2" class="edge">
<title>Node1&#45;&gt;Node2</title>
<path fill="none" stroke="midnightblue" d="M156.9,-38.82C166.08,-36.65 175.36,-34.46 182.81,-32.7"/>
<polygon fill="midnightblue" stroke="midnightblue" points="155.99,-35.44 147.06,-41.14 157.6,-42.25 155.99,-35.44"/>
</g>
<!-- Node3 -->
<g id="node4" class="node">
<title>Node3</title>
<g id="a_node4"><a xlink:href="classNode.html" target="_top" xlink:title=" ">
<polygon fill="none" stroke="black" points="96,-0.5 96,-19.5 138,-19.5 138,-0.5 96,-0.5"/>
<text text-anchor="middle" x="117" y="-7.5" font-family="Helvetica,sans-Serif" font-size="10.00">Node</text>
</a>
</g>
</g>
<!-- Node3&#45;&gt;Node2 -->
<g id="edge3" class="edge">
<title>Node3&#45;&gt;Node2</title>
<path fill="none" stroke="midnightblue" d="M148.22,-17.13C159.97,-19.91 172.94,-22.97 182.76,-25.29"/>
<polygon fill="midnightblue" stroke="midnightblue" points="148.85,-13.69 138.31,-14.79 147.24,-20.5 148.85,-13.69"/>
</g>
</g>
</svg>
