<?xml version="1.0" encoding="UTF-8" standalone="no"?>
<!DOCTYPE svg PUBLIC "-//W3C//DTD SVG 1.1//EN"
 "http://www.w3.org/Graphics/SVG/1.1/DTD/svg11.dtd">
<!-- Generated by graphviz version 2.43.0 (0)
 -->
<!-- Title: src/main.cpp Pages: 1 -->
<svg width="398pt" height="308pt"
 viewBox="0.00 0.00 397.61 308.00" xmlns="http://www.w3.org/2000/svg" xmlns:xlink="http://www.w3.org/1999/xlink">
<g id="graph0" class="graph" transform="scale(1 1) rotate(0) translate(4 304)">
<title>src/main.cpp</title>
<!-- Node1 -->
<g id="node1" class="node">
<title>Node1</title>
<g id="a_node1"><a xlink:title="University of Hawaii, College of Engineering.">
<polygon fill="#bfbfbf" stroke="black" points="196.5,-280.5 196.5,-299.5 275.5,-299.5 275.5,-280.5 196.5,-280.5"/>
<text text-anchor="middle" x="236" y="-287.5" font-family="Helvetica,sans-Serif" font-size="10.00">src/main.cpp</text>
</a>
</g>
</g>
<!-- Node2 -->
<g id="node2" class="node">
<title>Node2</title>
<g id="a_node2"><a xlink:href="main_8h.html" target="_top" xlink:title="University of Hawaii, College of Engineering.">
<polygon fill="none" stroke="black" points="66,-112.5 66,-131.5 116,-131.5 116,-112.5 66,-112.5"/>
<text text-anchor="middle" x="91" y="-119.5" font-family="Helvetica,sans-Serif" font-size="10.00">main.h</text>
</a>
</g>
</g>
<!-- Node1&#45;&gt;Node2 -->
<g id="edge1" class="edge">
<title>Node1&#45;&gt;Node2</title>
<path fill="none" stroke="midnightblue" d="M196.43,-288.15C163.55,-285.11 118.48,-275.05 95,-244 72.47,-214.21 79.29,-167.47 85.57,-141.67"/>
<polygon fill="midnightblue" stroke="midnightblue" points="89.03,-142.28 88.23,-131.72 82.27,-140.48 89.03,-142.28"/>
</g>
<!-- Node3 -->
<g id="node3" class="node">
<title>Node3</title>
<g id="a_node3"><a xlink:title=" ">
<polygon fill="none" stroke="#bfbfbf" points="42,-0.5 42,-19.5 102,-19.5 102,-0.5 42,-0.5"/>
<text text-anchor="middle" x="72" y="-7.5" font-family="Helvetica,sans-Serif" font-size="10.00">iostream</text>
</a>
</g>
</g>
<!-- Node1&#45;&gt;Node3 -->
<g id="edge2" class="edge">
<title>Node1&#45;&gt;Node3</title>
<path fill="none" stroke="midnightblue" d="M196.5,-287.93C129.32,-283.78 0,-264.66 0,-179 0,-179 0,-179 0,-121 0,-81.94 32.18,-45.94 53.51,-26.37"/>
<polygon fill="midnightblue" stroke="midnightblue" points="55.88,-28.94 61.06,-19.7 51.25,-23.7 55.88,-28.94"/>
</g>
<!-- Node4 -->
<g id="node4" class="node">
<title>Node4</title>
<g id="a_node4"><a xlink:href="Node_8h.html" target="_top" xlink:title="University of Hawaii, College of Engineering.">
<polygon fill="none" stroke="black" points="118.5,-56.5 118.5,-75.5 169.5,-75.5 169.5,-56.5 118.5,-56.5"/>
<text text-anchor="middle" x="144" y="-63.5" font-family="Helvetica,sans-Serif" font-size="10.00">Node.h</text>
</a>
</g>
</g>
<!-- Node1&#45;&gt;Node4 -->
<g id="edge3" class="edge">
<title>Node1&#45;&gt;Node4</title>
<path fill="none" stroke="midnightblue" d="M196.45,-288.19C161.43,-285.29 111.43,-275.4 82,-244 41.17,-200.44 25.96,-163.01 57,-112 68.29,-93.45 89.98,-82.2 108.87,-75.6"/>
<polygon fill="midnightblue" stroke="midnightblue" points="109.96,-78.92 118.43,-72.55 107.83,-72.25 109.96,-78.92"/>
</g>
<!-- Node5 -->
<g id="node5" class="node">
<title>Node5</title>
<g id="a_node5"><a xlink:href="Gender_8h.html" target="_top" xlink:title="University of Hawaii, College of Engineering.">
<polygon fill="none" stroke="black" points="323.5,-56.5 323.5,-75.5 384.5,-75.5 384.5,-56.5 323.5,-56.5"/>
<text text-anchor="middle" x="354" y="-63.5" font-family="Helvetica,sans-Serif" font-size="10.00">Gender.h</text>
</a>
</g>
</g>
<!-- Node1&#45;&gt;Node5 -->
<g id="edge5" class="edge">
<title>Node1&#45;&gt;Node5</title>
<path fill="none" stroke="midnightblue" d="M275.73,-282.59C300.37,-276.62 330.86,-265.28 350,-244 390.3,-199.19 397.09,-170.08 381,-112 378.21,-101.92 372.49,-91.83 367.03,-83.77"/>
<polygon fill="midnightblue" stroke="midnightblue" points="369.85,-81.69 361.15,-75.64 364.18,-85.79 369.85,-81.69"/>
</g>
<!-- Node6 -->
<g id="node6" class="node">
<title>Node6</title>
<g id="a_node6"><a xlink:href="Animal_8h.html" target="_top" xlink:title="University of Hawaii, College of Engineering.">
<polygon fill="none" stroke="black" points="221,-112.5 221,-131.5 281,-131.5 281,-112.5 221,-112.5"/>
<text text-anchor="middle" x="251" y="-119.5" font-family="Helvetica,sans-Serif" font-size="10.00">Animal.h</text>
</a>
</g>
</g>
<!-- Node1&#45;&gt;Node6 -->
<g id="edge6" class="edge">
<title>Node1&#45;&gt;Node6</title>
<path fill="none" stroke="midnightblue" d="M236.81,-280.08C239.17,-253.95 246.1,-177.21 249.32,-141.58"/>
<polygon fill="midnightblue" stroke="midnightblue" points="252.81,-141.84 250.23,-131.57 245.84,-141.21 252.81,-141.84"/>
</g>
<!-- Node9 -->
<g id="node9" class="node">
<title>Node9</title>
<g id="a_node9"><a xlink:href="Color_8h.html" target="_top" xlink:title="University of Hawaii, College of Engineering.">
<polygon fill="none" stroke="black" points="320.5,-112.5 320.5,-131.5 371.5,-131.5 371.5,-112.5 320.5,-112.5"/>
<text text-anchor="middle" x="346" y="-119.5" font-family="Helvetica,sans-Serif" font-size="10.00">Color.h</text>
</a>
</g>
</g>
<!-- Node1&#45;&gt;Node9 -->
<g id="edge11" class="edge">
<title>Node1&#45;&gt;Node9</title>
<path fill="none" stroke="midnightblue" d="M270.2,-280.4C290.5,-273.64 315.27,-262.24 331,-244 355.68,-215.37 353.23,-167.81 349.49,-141.65"/>
<polygon fill="midnightblue" stroke="midnightblue" points="352.91,-140.88 347.83,-131.58 346,-142.02 352.91,-140.88"/>
</g>
<!-- Node10 -->
<g id="node10" class="node">
<title>Node10</title>
<g id="a_node10"><a xlink:href="Mammal_8h.html" target="_top" xlink:title="University of Hawaii, College of Engineering.">
<polygon fill="none" stroke="black" points="269.5,-168.5 269.5,-187.5 338.5,-187.5 338.5,-168.5 269.5,-168.5"/>
<text text-anchor="middle" x="304" y="-175.5" font-family="Helvetica,sans-Serif" font-size="10.00">Mammal.h</text>
</a>
</g>
</g>
<!-- Node1&#45;&gt;Node10 -->
<g id="edge12" class="edge">
<title>Node1&#45;&gt;Node10</title>
<path fill="none" stroke="midnightblue" d="M265.88,-280.39C283.54,-273.59 304.45,-262.15 315,-244 323.34,-229.65 318.7,-210.7 313.11,-196.96"/>
<polygon fill="midnightblue" stroke="midnightblue" points="316.19,-195.28 308.85,-187.64 309.82,-198.19 316.19,-195.28"/>
</g>
<!-- Node11 -->
<g id="node11" class="node">
<title>Node11</title>
<g id="a_node11"><a xlink:href="Cat_8h.html" target="_top" xlink:title="University of Hawaii, College of Engineering.">
<polygon fill="none" stroke="black" points="264,-224.5 264,-243.5 306,-243.5 306,-224.5 264,-224.5"/>
<text text-anchor="middle" x="285" y="-231.5" font-family="Helvetica,sans-Serif" font-size="10.00">Cat.h</text>
</a>
</g>
</g>
<!-- Node1&#45;&gt;Node11 -->
<g id="edge15" class="edge">
<title>Node1&#45;&gt;Node11</title>
<path fill="none" stroke="midnightblue" d="M244.09,-280.08C251.16,-272.3 261.59,-260.8 270.15,-251.37"/>
<polygon fill="midnightblue" stroke="midnightblue" points="272.93,-253.51 277.06,-243.75 267.75,-248.8 272.93,-253.51"/>
</g>
<!-- Node12 -->
<g id="node12" class="node">
<title>Node12</title>
<g id="a_node12"><a xlink:href="SinglyLinkedList_8h.html" target="_top" xlink:title="University of Hawaii, College of Engineering.">
<polygon fill="none" stroke="black" points="104,-224.5 104,-243.5 208,-243.5 208,-224.5 104,-224.5"/>
<text text-anchor="middle" x="156" y="-231.5" font-family="Helvetica,sans-Serif" font-size="10.00">SinglyLinkedList.h</text>
</a>
</g>
</g>
<!-- Node1&#45;&gt;Node12 -->
<g id="edge17" class="edge">
<title>Node1&#45;&gt;Node12</title>
<path fill="none" stroke="midnightblue" d="M223.15,-280.32C210.78,-271.98 191.87,-259.21 177.26,-249.35"/>
<polygon fill="midnightblue" stroke="midnightblue" points="179.07,-246.35 168.82,-243.65 175.15,-252.15 179.07,-246.35"/>
</g>
<!-- Node4&#45;&gt;Node3 -->
<g id="edge4" class="edge">
<title>Node4&#45;&gt;Node3</title>
<path fill="none" stroke="midnightblue" d="M132.43,-56.32C121.58,-48.18 105.12,-35.84 92.12,-26.09"/>
<polygon fill="midnightblue" stroke="midnightblue" points="93.88,-23.03 83.78,-19.83 89.68,-28.63 93.88,-23.03"/>
</g>
<!-- Node6&#45;&gt;Node4 -->
<g id="edge7" class="edge">
<title>Node6&#45;&gt;Node4</title>
<path fill="none" stroke="midnightblue" d="M233.81,-112.32C216.65,-103.66 190.05,-90.24 170.25,-80.25"/>
<polygon fill="midnightblue" stroke="midnightblue" points="171.65,-77.04 161.15,-75.65 168.5,-83.28 171.65,-77.04"/>
</g>
<!-- Node6&#45;&gt;Node5 -->
<g id="edge8" class="edge">
<title>Node6&#45;&gt;Node5</title>
<path fill="none" stroke="midnightblue" d="M267.55,-112.32C283.99,-103.7 309.43,-90.36 328.47,-80.39"/>
<polygon fill="midnightblue" stroke="midnightblue" points="330.26,-83.4 337.49,-75.65 327.01,-77.2 330.26,-83.4"/>
</g>
<!-- Node7 -->
<g id="node7" class="node">
<title>Node7</title>
<g id="a_node7"><a xlink:href="Weight_8h.html" target="_top" xlink:title="University of Hawaii, College of Engineering.">
<polygon fill="none" stroke="black" points="221,-56.5 221,-75.5 281,-75.5 281,-56.5 221,-56.5"/>
<text text-anchor="middle" x="251" y="-63.5" font-family="Helvetica,sans-Serif" font-size="10.00">Weight.h</text>
</a>
</g>
</g>
<!-- Node6&#45;&gt;Node7 -->
<g id="edge9" class="edge">
<title>Node6&#45;&gt;Node7</title>
<path fill="none" stroke="midnightblue" d="M251,-112.08C251,-105.01 251,-94.86 251,-85.99"/>
<polygon fill="midnightblue" stroke="midnightblue" points="254.5,-85.75 251,-75.75 247.5,-85.75 254.5,-85.75"/>
</g>
<!-- Node8 -->
<g id="node8" class="node">
<title>Node8</title>
<g id="a_node8"><a xlink:title=" ">
<polygon fill="none" stroke="#bfbfbf" points="222.5,-0.5 222.5,-19.5 279.5,-19.5 279.5,-0.5 222.5,-0.5"/>
<text text-anchor="middle" x="251" y="-7.5" font-family="Helvetica,sans-Serif" font-size="10.00">ostream</text>
</a>
</g>
</g>
<!-- Node7&#45;&gt;Node8 -->
<g id="edge10" class="edge">
<title>Node7&#45;&gt;Node8</title>
<path fill="none" stroke="midnightblue" d="M251,-56.08C251,-49.01 251,-38.86 251,-29.99"/>
<polygon fill="midnightblue" stroke="midnightblue" points="254.5,-29.75 251,-19.75 247.5,-29.75 254.5,-29.75"/>
</g>
<!-- Node10&#45;&gt;Node6 -->
<g id="edge13" class="edge">
<title>Node10&#45;&gt;Node6</title>
<path fill="none" stroke="midnightblue" d="M295.25,-168.08C287.53,-160.22 276.1,-148.57 266.78,-139.08"/>
<polygon fill="midnightblue" stroke="midnightblue" points="269.09,-136.44 259.59,-131.75 264.1,-141.34 269.09,-136.44"/>
</g>
<!-- Node10&#45;&gt;Node9 -->
<g id="edge14" class="edge">
<title>Node10&#45;&gt;Node9</title>
<path fill="none" stroke="midnightblue" d="M310.94,-168.08C316.93,-160.38 325.75,-149.03 333.05,-139.65"/>
<polygon fill="midnightblue" stroke="midnightblue" points="335.82,-141.79 339.19,-131.75 330.29,-137.5 335.82,-141.79"/>
</g>
<!-- Node11&#45;&gt;Node10 -->
<g id="edge16" class="edge">
<title>Node11&#45;&gt;Node10</title>
<path fill="none" stroke="midnightblue" d="M288.14,-224.08C290.68,-216.85 294.36,-206.41 297.53,-197.4"/>
<polygon fill="midnightblue" stroke="midnightblue" points="300.9,-198.35 300.92,-187.75 294.3,-196.02 300.9,-198.35"/>
</g>
<!-- Node12&#45;&gt;Node4 -->
<g id="edge18" class="edge">
<title>Node12&#45;&gt;Node4</title>
<path fill="none" stroke="midnightblue" d="M157.74,-224.42C159.47,-215.4 162.01,-200.77 163,-188 165.83,-151.4 156.2,-109.13 149.63,-85.48"/>
<polygon fill="midnightblue" stroke="midnightblue" points="152.95,-84.38 146.8,-75.75 146.23,-86.33 152.95,-84.38"/>
</g>
<!-- Node13 -->
<g id="node13" class="node">
<title>Node13</title>
<g id="a_node13"><a xlink:href="List_8h.html" target="_top" xlink:title="University of Hawaii, College of Engineering.">
<polygon fill="none" stroke="black" points="110.5,-168.5 110.5,-187.5 153.5,-187.5 153.5,-168.5 110.5,-168.5"/>
<text text-anchor="middle" x="132" y="-175.5" font-family="Helvetica,sans-Serif" font-size="10.00">List.h</text>
</a>
</g>
</g>
<!-- Node12&#45;&gt;Node13 -->
<g id="edge19" class="edge">
<title>Node12&#45;&gt;Node13</title>
<path fill="none" stroke="midnightblue" d="M152.04,-224.08C148.79,-216.77 144.08,-206.18 140.05,-197.1"/>
<polygon fill="midnightblue" stroke="midnightblue" points="143.15,-195.47 135.89,-187.75 136.75,-198.31 143.15,-195.47"/>
</g>
<!-- Node13&#45;&gt;Node2 -->
<g id="edge21" class="edge">
<title>Node13&#45;&gt;Node2</title>
<path fill="none" stroke="midnightblue" d="M125.23,-168.08C119.44,-160.46 110.94,-149.26 103.86,-139.94"/>
<polygon fill="midnightblue" stroke="midnightblue" points="106.48,-137.6 97.64,-131.75 100.9,-141.83 106.48,-137.6"/>
</g>
<!-- Node13&#45;&gt;Node4 -->
<g id="edge20" class="edge">
<title>Node13&#45;&gt;Node4</title>
<path fill="none" stroke="midnightblue" d="M132.94,-168.37C134.88,-150.62 139.35,-109.67 141.97,-85.6"/>
<polygon fill="midnightblue" stroke="midnightblue" points="145.46,-85.91 143.06,-75.59 138.5,-85.15 145.46,-85.91"/>
</g>
</g>
</svg>
