<?xml version="1.0" encoding="UTF-8" standalone="no"?>
<!DOCTYPE svg PUBLIC "-//W3C//DTD SVG 1.1//EN"
 "http://www.w3.org/Graphics/SVG/1.1/DTD/svg11.dtd">
<!-- Generated by graphviz version 2.43.0 (0)
 -->
<!-- Title: src/main.h Pages: 1 -->
<svg width="287pt" height="196pt"
 viewBox="0.00 0.00 287.00 196.00" xmlns="http://www.w3.org/2000/svg" xmlns:xlink="http://www.w3.org/1999/xlink">
<g id="graph0" class="graph" transform="scale(1 1) rotate(0) translate(4 192)">
<title>src/main.h</title>
<!-- Node1 -->
<g id="node1" class="node">
<title>Node1</title>
<g id="a_node1"><a xlink:title="University of Hawaii, College of Engineering.">
<polygon fill="#bfbfbf" stroke="black" points="160.5,-168.5 160.5,-187.5 228.5,-187.5 228.5,-168.5 160.5,-168.5"/>
<text text-anchor="middle" x="194.5" y="-175.5" font-family="Helvetica,sans-Serif" font-size="10.00">src/main.h</text>
</a>
</g>
</g>
<!-- Node2 -->
<g id="node2" class="node">
<title>Node2</title>
<g id="a_node2"><a xlink:href="List_8h.html" target="_top" xlink:title="University of Hawaii, College of Engineering.">
<polygon fill="none" stroke="black" points="120.5,-112.5 120.5,-131.5 180.5,-131.5 180.5,-112.5 120.5,-112.5"/>
<text text-anchor="middle" x="150.5" y="-119.5" font-family="Helvetica,sans-Serif" font-size="10.00">src/List.h</text>
</a>
</g>
</g>
<!-- Node1&#45;&gt;Node2 -->
<g id="edge1" class="edge">
<title>Node1&#45;&gt;Node2</title>
<path fill="none" stroke="midnightblue" d="M180.77,-160.14C173.1,-150.74 163.87,-139.4 157.63,-131.75"/>
<polygon fill="midnightblue" stroke="midnightblue" points="178.2,-162.54 187.23,-168.08 183.63,-158.12 178.2,-162.54"/>
</g>
<!-- Node6 -->
<g id="node6" class="node">
<title>Node6</title>
<g id="a_node6"><a xlink:href="main_8cpp.html" target="_top" xlink:title="University of Hawaii, College of Engineering.">
<polygon fill="none" stroke="black" points="200,-0.5 200,-19.5 279,-19.5 279,-0.5 200,-0.5"/>
<text text-anchor="middle" x="239.5" y="-7.5" font-family="Helvetica,sans-Serif" font-size="10.00">src/main.cpp</text>
</a>
</g>
</g>
<!-- Node1&#45;&gt;Node6 -->
<g id="edge6" class="edge">
<title>Node1&#45;&gt;Node6</title>
<path fill="none" stroke="midnightblue" d="M199.54,-158.39C209.25,-122.59 230.19,-45.34 237.18,-19.57"/>
<polygon fill="midnightblue" stroke="midnightblue" points="196.16,-157.51 196.92,-168.08 202.91,-159.34 196.16,-157.51"/>
</g>
<!-- Node3 -->
<g id="node3" class="node">
<title>Node3</title>
<g id="a_node3"><a xlink:href="List_8cpp.html" target="_top" xlink:title="University of Hawaii, College of Engineering.">
<polygon fill="none" stroke="black" points="0,-56.5 0,-75.5 71,-75.5 71,-56.5 0,-56.5"/>
<text text-anchor="middle" x="35.5" y="-63.5" font-family="Helvetica,sans-Serif" font-size="10.00">src/List.cpp</text>
</a>
</g>
</g>
<!-- Node2&#45;&gt;Node3 -->
<g id="edge2" class="edge">
<title>Node2&#45;&gt;Node3</title>
<path fill="none" stroke="midnightblue" d="M123.02,-108.1C101.53,-98.01 72.28,-84.27 53.64,-75.52"/>
<polygon fill="midnightblue" stroke="midnightblue" points="121.74,-111.36 132.28,-112.44 124.71,-105.02 121.74,-111.36"/>
</g>
<!-- Node4 -->
<g id="node4" class="node">
<title>Node4</title>
<g id="a_node4"><a xlink:href="SinglyLinkedList_8h.html" target="_top" xlink:title="University of Hawaii, College of Engineering.">
<polygon fill="none" stroke="black" points="89.5,-56.5 89.5,-75.5 211.5,-75.5 211.5,-56.5 89.5,-56.5"/>
<text text-anchor="middle" x="150.5" y="-63.5" font-family="Helvetica,sans-Serif" font-size="10.00">src/SinglyLinkedList.h</text>
</a>
</g>
</g>
<!-- Node2&#45;&gt;Node4 -->
<g id="edge3" class="edge">
<title>Node2&#45;&gt;Node4</title>
<path fill="none" stroke="midnightblue" d="M150.5,-101.8C150.5,-92.91 150.5,-82.78 150.5,-75.75"/>
<polygon fill="midnightblue" stroke="midnightblue" points="147,-102.08 150.5,-112.08 154,-102.08 147,-102.08"/>
</g>
<!-- Node5 -->
<g id="node5" class="node">
<title>Node5</title>
<g id="a_node5"><a xlink:href="SinglyLinkedList_8cpp.html" target="_top" xlink:title="University of Hawaii, College of Engineering.">
<polygon fill="none" stroke="black" points="49,-0.5 49,-19.5 182,-19.5 182,-0.5 49,-0.5"/>
<text text-anchor="middle" x="115.5" y="-7.5" font-family="Helvetica,sans-Serif" font-size="10.00">src/SinglyLinkedList.cpp</text>
</a>
</g>
</g>
<!-- Node4&#45;&gt;Node5 -->
<g id="edge4" class="edge">
<title>Node4&#45;&gt;Node5</title>
<path fill="none" stroke="midnightblue" d="M139.2,-47.57C133.18,-38.27 126.03,-27.25 121.17,-19.75"/>
<polygon fill="midnightblue" stroke="midnightblue" points="136.34,-49.6 144.72,-56.08 142.22,-45.79 136.34,-49.6"/>
</g>
<!-- Node4&#45;&gt;Node6 -->
<g id="edge5" class="edge">
<title>Node4&#45;&gt;Node6</title>
<path fill="none" stroke="midnightblue" d="M173.74,-50.9C190.06,-41 211.37,-28.07 225.24,-19.65"/>
<polygon fill="midnightblue" stroke="midnightblue" points="171.53,-48.14 164.8,-56.32 175.16,-54.13 171.53,-48.14"/>
</g>
</g>
</svg>
