<?xml version="1.0" encoding="UTF-8" standalone="no"?>
<!DOCTYPE svg PUBLIC "-//W3C//DTD SVG 1.1//EN"
 "http://www.w3.org/Graphics/SVG/1.1/DTD/svg11.dtd">
<!-- Generated by graphviz version 2.43.0 (0)
 -->
<!-- Title: src/Mammal.h Pages: 1 -->
<svg width="263pt" height="140pt"
 viewBox="0.00 0.00 262.50 140.00" xmlns="http://www.w3.org/2000/svg" xmlns:xlink="http://www.w3.org/1999/xlink">
<g id="graph0" class="graph" transform="scale(1 1) rotate(0) translate(4 136)">
<title>src/Mammal.h</title>
<!-- Node1 -->
<g id="node1" class="node">
<title>Node1</title>
<g id="a_node1"><a xlink:title="University of Hawaii, College of Engineering.">
<polygon fill="#bfbfbf" stroke="black" points="85.5,-112.5 85.5,-131.5 171.5,-131.5 171.5,-112.5 85.5,-112.5"/>
<text text-anchor="middle" x="128.5" y="-119.5" font-family="Helvetica,sans-Serif" font-size="10.00">src/Mammal.h</text>
</a>
</g>
</g>
<!-- Node2 -->
<g id="node2" class="node">
<title>Node2</title>
<g id="a_node2"><a xlink:href="Cat_8h.html" target="_top" xlink:title="University of Hawaii, College of Engineering.">
<polygon fill="none" stroke="black" points="41,-56.5 41,-75.5 100,-75.5 100,-56.5 41,-56.5"/>
<text text-anchor="middle" x="70.5" y="-63.5" font-family="Helvetica,sans-Serif" font-size="10.00">src/Cat.h</text>
</a>
</g>
</g>
<!-- Node1&#45;&gt;Node2 -->
<g id="edge1" class="edge">
<title>Node1&#45;&gt;Node2</title>
<path fill="none" stroke="midnightblue" d="M111.59,-105.25C101.3,-95.67 88.53,-83.79 79.99,-75.83"/>
<polygon fill="midnightblue" stroke="midnightblue" points="109.48,-108.07 119.18,-112.32 114.25,-102.95 109.48,-108.07"/>
</g>
<!-- Node4 -->
<g id="node4" class="node">
<title>Node4</title>
<g id="a_node4"><a xlink:href="main_8cpp.html" target="_top" xlink:title="University of Hawaii, College of Engineering.">
<polygon fill="none" stroke="black" points="89,-0.5 89,-19.5 168,-19.5 168,-0.5 89,-0.5"/>
<text text-anchor="middle" x="128.5" y="-7.5" font-family="Helvetica,sans-Serif" font-size="10.00">src/main.cpp</text>
</a>
</g>
</g>
<!-- Node1&#45;&gt;Node4 -->
<g id="edge5" class="edge">
<title>Node1&#45;&gt;Node4</title>
<path fill="none" stroke="midnightblue" d="M128.5,-102.35C128.5,-78.25 128.5,-37.31 128.5,-19.59"/>
<polygon fill="midnightblue" stroke="midnightblue" points="125,-102.37 128.5,-112.37 132,-102.37 125,-102.37"/>
</g>
<!-- Node5 -->
<g id="node5" class="node">
<title>Node5</title>
<g id="a_node5"><a xlink:href="Mammal_8cpp.html" target="_top" xlink:title="University of Hawaii, College of Engineering.">
<polygon fill="none" stroke="black" points="156.5,-56.5 156.5,-75.5 254.5,-75.5 254.5,-56.5 156.5,-56.5"/>
<text text-anchor="middle" x="205.5" y="-63.5" font-family="Helvetica,sans-Serif" font-size="10.00">src/Mammal.cpp</text>
</a>
</g>
</g>
<!-- Node1&#45;&gt;Node5 -->
<g id="edge4" class="edge">
<title>Node1&#45;&gt;Node5</title>
<path fill="none" stroke="midnightblue" d="M149.4,-106.34C163.41,-96.52 181.38,-83.91 193.16,-75.65"/>
<polygon fill="midnightblue" stroke="midnightblue" points="147.05,-103.72 140.87,-112.32 151.07,-109.45 147.05,-103.72"/>
</g>
<!-- Node3 -->
<g id="node3" class="node">
<title>Node3</title>
<g id="a_node3"><a xlink:href="Cat_8cpp.html" target="_top" xlink:title="University of Hawaii, College of Engineering.">
<polygon fill="none" stroke="black" points="0,-0.5 0,-19.5 71,-19.5 71,-0.5 0,-0.5"/>
<text text-anchor="middle" x="35.5" y="-7.5" font-family="Helvetica,sans-Serif" font-size="10.00">src/Cat.cpp</text>
</a>
</g>
</g>
<!-- Node2&#45;&gt;Node3 -->
<g id="edge2" class="edge">
<title>Node2&#45;&gt;Node3</title>
<path fill="none" stroke="midnightblue" d="M59.2,-47.57C53.18,-38.27 46.03,-27.25 41.17,-19.75"/>
<polygon fill="midnightblue" stroke="midnightblue" points="56.34,-49.6 64.72,-56.08 62.22,-45.79 56.34,-49.6"/>
</g>
<!-- Node2&#45;&gt;Node4 -->
<g id="edge3" class="edge">
<title>Node2&#45;&gt;Node4</title>
<path fill="none" stroke="midnightblue" d="M87.41,-49.25C97.7,-39.67 110.47,-27.79 119.01,-19.83"/>
<polygon fill="midnightblue" stroke="midnightblue" points="84.75,-46.95 79.82,-56.32 89.52,-52.07 84.75,-46.95"/>
</g>
</g>
</svg>
