<?xml version="1.0" encoding="UTF-8" standalone="no"?>
<!DOCTYPE svg PUBLIC "-//W3C//DTD SVG 1.1//EN"
 "http://www.w3.org/Graphics/SVG/1.1/DTD/svg11.dtd">
<!-- Generated by graphviz version 2.43.0 (0)
 -->
<!-- Title: src/SinglyLinkedList.h Pages: 1 -->
<svg width="138pt" height="196pt"
 viewBox="0.00 0.00 138.00 196.00" xmlns="http://www.w3.org/2000/svg" xmlns:xlink="http://www.w3.org/1999/xlink">
<g id="graph0" class="graph" transform="scale(1 1) rotate(0) translate(4 192)">
<title>src/SinglyLinkedList.h</title>
<!-- Node1 -->
<g id="node1" class="node">
<title>Node1</title>
<g id="a_node1"><a xlink:title="University of Hawaii, College of Engineering.">
<polygon fill="#bfbfbf" stroke="black" points="0,-168.5 0,-187.5 122,-187.5 122,-168.5 0,-168.5"/>
<text text-anchor="middle" x="61" y="-175.5" font-family="Helvetica,sans-Serif" font-size="10.00">src/SinglyLinkedList.h</text>
</a>
</g>
</g>
<!-- Node2 -->
<g id="node2" class="node">
<title>Node2</title>
<g id="a_node2"><a xlink:href="Node_8h.html" target="_top" xlink:title="University of Hawaii, College of Engineering.">
<polygon fill="none" stroke="black" points="10.5,-56.5 10.5,-75.5 61.5,-75.5 61.5,-56.5 10.5,-56.5"/>
<text text-anchor="middle" x="36" y="-63.5" font-family="Helvetica,sans-Serif" font-size="10.00">Node.h</text>
</a>
</g>
</g>
<!-- Node1&#45;&gt;Node2 -->
<g id="edge1" class="edge">
<title>Node1&#45;&gt;Node2</title>
<path fill="none" stroke="midnightblue" d="M59.04,-168.37C55,-150.62 45.7,-109.67 40.23,-85.6"/>
<polygon fill="midnightblue" stroke="midnightblue" points="43.58,-84.57 37.95,-75.59 36.76,-86.12 43.58,-84.57"/>
</g>
<!-- Node4 -->
<g id="node4" class="node">
<title>Node4</title>
<g id="a_node4"><a xlink:href="List_8h.html" target="_top" xlink:title="University of Hawaii, College of Engineering.">
<polygon fill="none" stroke="black" points="64.5,-112.5 64.5,-131.5 107.5,-131.5 107.5,-112.5 64.5,-112.5"/>
<text text-anchor="middle" x="86" y="-119.5" font-family="Helvetica,sans-Serif" font-size="10.00">List.h</text>
</a>
</g>
</g>
<!-- Node1&#45;&gt;Node4 -->
<g id="edge3" class="edge">
<title>Node1&#45;&gt;Node4</title>
<path fill="none" stroke="midnightblue" d="M65.13,-168.08C68.51,-160.77 73.42,-150.18 77.62,-141.1"/>
<polygon fill="midnightblue" stroke="midnightblue" points="80.92,-142.3 81.95,-131.75 74.57,-139.36 80.92,-142.3"/>
</g>
<!-- Node3 -->
<g id="node3" class="node">
<title>Node3</title>
<g id="a_node3"><a xlink:title=" ">
<polygon fill="none" stroke="#bfbfbf" points="6,-0.5 6,-19.5 66,-19.5 66,-0.5 6,-0.5"/>
<text text-anchor="middle" x="36" y="-7.5" font-family="Helvetica,sans-Serif" font-size="10.00">iostream</text>
</a>
</g>
</g>
<!-- Node2&#45;&gt;Node3 -->
<g id="edge2" class="edge">
<title>Node2&#45;&gt;Node3</title>
<path fill="none" stroke="midnightblue" d="M36,-56.08C36,-49.01 36,-38.86 36,-29.99"/>
<polygon fill="midnightblue" stroke="midnightblue" points="39.5,-29.75 36,-19.75 32.5,-29.75 39.5,-29.75"/>
</g>
<!-- Node4&#45;&gt;Node2 -->
<g id="edge4" class="edge">
<title>Node4&#45;&gt;Node2</title>
<path fill="none" stroke="midnightblue" d="M77.74,-112.08C70.54,-104.3 59.89,-92.8 51.15,-83.37"/>
<polygon fill="midnightblue" stroke="midnightblue" points="53.47,-80.71 44.1,-75.75 48.33,-85.47 53.47,-80.71"/>
</g>
<!-- Node5 -->
<g id="node5" class="node">
<title>Node5</title>
<g id="a_node5"><a xlink:href="main_8h.html" target="_top" xlink:title="University of Hawaii, College of Engineering.">
<polygon fill="none" stroke="black" points="80,-56.5 80,-75.5 130,-75.5 130,-56.5 80,-56.5"/>
<text text-anchor="middle" x="105" y="-63.5" font-family="Helvetica,sans-Serif" font-size="10.00">main.h</text>
</a>
</g>
</g>
<!-- Node4&#45;&gt;Node5 -->
<g id="edge5" class="edge">
<title>Node4&#45;&gt;Node5</title>
<path fill="none" stroke="midnightblue" d="M89.14,-112.08C91.68,-104.85 95.36,-94.41 98.53,-85.4"/>
<polygon fill="midnightblue" stroke="midnightblue" points="101.9,-86.35 101.92,-75.75 95.3,-84.02 101.9,-86.35"/>
</g>
</g>
</svg>
