<?xml version="1.0" encoding="UTF-8" standalone="no"?>
<!DOCTYPE svg PUBLIC "-//W3C//DTD SVG 1.1//EN"
 "http://www.w3.org/Graphics/SVG/1.1/DTD/svg11.dtd">
<!-- Generated by graphviz version 2.43.0 (0)
 -->
<!-- Title: src/util.h Pages: 1 -->
<svg width="186pt" height="84pt"
 viewBox="0.00 0.00 186.00 84.00" xmlns="http://www.w3.org/2000/svg" xmlns:xlink="http://www.w3.org/1999/xlink">
<g id="graph0" class="graph" transform="scale(1 1) rotate(0) translate(4 80)">
<title>src/util.h</title>
<!-- Node1 -->
<g id="node1" class="node">
<title>Node1</title>
<g id="a_node1"><a xlink:title="University of Hawaii, College of Engineering.">
<polygon fill="#bfbfbf" stroke="black" points="64,-56.5 64,-75.5 123,-75.5 123,-56.5 64,-56.5"/>
<text text-anchor="middle" x="93.5" y="-63.5" font-family="Helvetica,sans-Serif" font-size="10.00">src/util.h</text>
</a>
</g>
</g>
<!-- Node2 -->
<g id="node2" class="node">
<title>Node2</title>
<g id="a_node2"><a xlink:href="Animal_8cpp.html" target="_top" xlink:title="University of Hawaii, College of Engineering.">
<polygon fill="none" stroke="black" points="0,-0.5 0,-19.5 89,-19.5 89,-0.5 0,-0.5"/>
<text text-anchor="middle" x="44.5" y="-7.5" font-family="Helvetica,sans-Serif" font-size="10.00">src/Animal.cpp</text>
</a>
</g>
</g>
<!-- Node1&#45;&gt;Node2 -->
<g id="edge1" class="edge">
<title>Node1&#45;&gt;Node2</title>
<path fill="none" stroke="midnightblue" d="M78.47,-48.43C69.88,-38.97 59.46,-27.48 52.44,-19.75"/>
<polygon fill="midnightblue" stroke="midnightblue" points="76.1,-51.03 85.41,-56.08 81.28,-46.33 76.1,-51.03"/>
</g>
<!-- Node3 -->
<g id="node3" class="node">
<title>Node3</title>
<g id="a_node3"><a xlink:href="Cat_8cpp.html" target="_top" xlink:title="University of Hawaii, College of Engineering.">
<polygon fill="none" stroke="black" points="107,-0.5 107,-19.5 178,-19.5 178,-0.5 107,-0.5"/>
<text text-anchor="middle" x="142.5" y="-7.5" font-family="Helvetica,sans-Serif" font-size="10.00">src/Cat.cpp</text>
</a>
</g>
</g>
<!-- Node1&#45;&gt;Node3 -->
<g id="edge2" class="edge">
<title>Node1&#45;&gt;Node3</title>
<path fill="none" stroke="midnightblue" d="M108.53,-48.43C117.12,-38.97 127.54,-27.48 134.56,-19.75"/>
<polygon fill="midnightblue" stroke="midnightblue" points="105.72,-46.33 101.59,-56.08 110.9,-51.03 105.72,-46.33"/>
</g>
</g>
</svg>
