<?xml version="1.0" encoding="UTF-8" standalone="no"?>
<!DOCTYPE svg PUBLIC "-//W3C//DTD SVG 1.1//EN"
 "http://www.w3.org/Graphics/SVG/1.1/DTD/svg11.dtd">
<!-- Generated by graphviz version 2.43.0 (0)
 -->
<!-- Title: src/Weight.h Pages: 1 -->
<svg width="393pt" height="252pt"
 viewBox="0.00 0.00 392.50 252.00" xmlns="http://www.w3.org/2000/svg" xmlns:xlink="http://www.w3.org/1999/xlink">
<g id="graph0" class="graph" transform="scale(1 1) rotate(0) translate(4 248)">
<title>src/Weight.h</title>
<!-- Node1 -->
<g id="node1" class="node">
<title>Node1</title>
<g id="a_node1"><a xlink:title="University of Hawaii, College of Engineering.">
<polygon fill="#bfbfbf" stroke="black" points="213,-224.5 213,-243.5 290,-243.5 290,-224.5 213,-224.5"/>
<text text-anchor="middle" x="251.5" y="-231.5" font-family="Helvetica,sans-Serif" font-size="10.00">src/Weight.h</text>
</a>
</g>
</g>
<!-- Node2 -->
<g id="node2" class="node">
<title>Node2</title>
<g id="a_node2"><a xlink:href="Animal_8h.html" target="_top" xlink:title="University of Hawaii, College of Engineering.">
<polygon fill="none" stroke="black" points="112,-168.5 112,-187.5 189,-187.5 189,-168.5 112,-168.5"/>
<text text-anchor="middle" x="150.5" y="-175.5" font-family="Helvetica,sans-Serif" font-size="10.00">src/Animal.h</text>
</a>
</g>
</g>
<!-- Node1&#45;&gt;Node2 -->
<g id="edge1" class="edge">
<title>Node1&#45;&gt;Node2</title>
<path fill="none" stroke="midnightblue" d="M226.42,-219.59C207.74,-209.61 182.8,-196.27 166.69,-187.65"/>
<polygon fill="midnightblue" stroke="midnightblue" points="224.8,-222.7 235.27,-224.32 228.1,-216.52 224.8,-222.7"/>
</g>
<!-- Node9 -->
<g id="node9" class="node">
<title>Node9</title>
<g id="a_node9"><a xlink:href="Weight_8cpp.html" target="_top" xlink:title="University of Hawaii, College of Engineering.">
<polygon fill="none" stroke="black" points="207,-168.5 207,-187.5 296,-187.5 296,-168.5 207,-168.5"/>
<text text-anchor="middle" x="251.5" y="-175.5" font-family="Helvetica,sans-Serif" font-size="10.00">src/Weight.cpp</text>
</a>
</g>
</g>
<!-- Node1&#45;&gt;Node9 -->
<g id="edge10" class="edge">
<title>Node1&#45;&gt;Node9</title>
<path fill="none" stroke="midnightblue" d="M251.5,-213.8C251.5,-204.91 251.5,-194.78 251.5,-187.75"/>
<polygon fill="midnightblue" stroke="midnightblue" points="248,-214.08 251.5,-224.08 255,-214.08 248,-214.08"/>
</g>
<!-- Node10 -->
<g id="node10" class="node">
<title>Node10</title>
<g id="a_node10"><a xlink:href="util_8cpp.html" target="_top" xlink:title="University of Hawaii, College of Engineering.">
<polygon fill="none" stroke="black" points="314.5,-168.5 314.5,-187.5 384.5,-187.5 384.5,-168.5 314.5,-168.5"/>
<text text-anchor="middle" x="349.5" y="-175.5" font-family="Helvetica,sans-Serif" font-size="10.00">src/util.cpp</text>
</a>
</g>
</g>
<!-- Node1&#45;&gt;Node10 -->
<g id="edge11" class="edge">
<title>Node1&#45;&gt;Node10</title>
<path fill="none" stroke="midnightblue" d="M276.09,-219.45C294.18,-209.48 318.23,-196.23 333.79,-187.65"/>
<polygon fill="midnightblue" stroke="midnightblue" points="274.31,-216.43 267.25,-224.32 277.69,-222.56 274.31,-216.43"/>
</g>
<!-- Node3 -->
<g id="node3" class="node">
<title>Node3</title>
<g id="a_node3"><a xlink:href="Animal_8cpp.html" target="_top" xlink:title="University of Hawaii, College of Engineering.">
<polygon fill="none" stroke="black" points="0,-112.5 0,-131.5 89,-131.5 89,-112.5 0,-112.5"/>
<text text-anchor="middle" x="44.5" y="-119.5" font-family="Helvetica,sans-Serif" font-size="10.00">src/Animal.cpp</text>
</a>
</g>
</g>
<!-- Node2&#45;&gt;Node3 -->
<g id="edge2" class="edge">
<title>Node2&#45;&gt;Node3</title>
<path fill="none" stroke="midnightblue" d="M124.44,-163.73C104.82,-153.73 78.47,-140.31 61.49,-131.65"/>
<polygon fill="midnightblue" stroke="midnightblue" points="122.97,-166.9 133.47,-168.32 126.15,-160.67 122.97,-166.9"/>
</g>
<!-- Node4 -->
<g id="node4" class="node">
<title>Node4</title>
<g id="a_node4"><a xlink:href="Mammal_8h.html" target="_top" xlink:title="University of Hawaii, College of Engineering.">
<polygon fill="none" stroke="black" points="107.5,-112.5 107.5,-131.5 193.5,-131.5 193.5,-112.5 107.5,-112.5"/>
<text text-anchor="middle" x="150.5" y="-119.5" font-family="Helvetica,sans-Serif" font-size="10.00">src/Mammal.h</text>
</a>
</g>
</g>
<!-- Node2&#45;&gt;Node4 -->
<g id="edge3" class="edge">
<title>Node2&#45;&gt;Node4</title>
<path fill="none" stroke="midnightblue" d="M150.5,-157.8C150.5,-148.91 150.5,-138.78 150.5,-131.75"/>
<polygon fill="midnightblue" stroke="midnightblue" points="147,-158.08 150.5,-168.08 154,-158.08 147,-158.08"/>
</g>
<!-- Node7 -->
<g id="node7" class="node">
<title>Node7</title>
<g id="a_node7"><a xlink:href="main_8cpp.html" target="_top" xlink:title="University of Hawaii, College of Engineering.">
<polygon fill="none" stroke="black" points="91,-0.5 91,-19.5 170,-19.5 170,-0.5 91,-0.5"/>
<text text-anchor="middle" x="130.5" y="-7.5" font-family="Helvetica,sans-Serif" font-size="10.00">src/main.cpp</text>
</a>
</g>
</g>
<!-- Node2&#45;&gt;Node7 -->
<g id="edge9" class="edge">
<title>Node2&#45;&gt;Node7</title>
<path fill="none" stroke="midnightblue" d="M175.91,-163.33C213.22,-141.44 275.53,-96.82 247.5,-56 230.25,-30.88 196.88,-19.78 170.17,-14.87"/>
<polygon fill="midnightblue" stroke="midnightblue" points="173.99,-160.4 167.03,-168.39 177.45,-166.48 173.99,-160.4"/>
</g>
<!-- Node5 -->
<g id="node5" class="node">
<title>Node5</title>
<g id="a_node5"><a xlink:href="Cat_8h.html" target="_top" xlink:title="University of Hawaii, College of Engineering.">
<polygon fill="none" stroke="black" points="25,-56.5 25,-75.5 84,-75.5 84,-56.5 25,-56.5"/>
<text text-anchor="middle" x="54.5" y="-63.5" font-family="Helvetica,sans-Serif" font-size="10.00">src/Cat.h</text>
</a>
</g>
</g>
<!-- Node4&#45;&gt;Node5 -->
<g id="edge4" class="edge">
<title>Node4&#45;&gt;Node5</title>
<path fill="none" stroke="midnightblue" d="M125.93,-107.18C108.26,-97.24 84.99,-84.15 69.89,-75.65"/>
<polygon fill="midnightblue" stroke="midnightblue" points="124.64,-110.47 135.08,-112.32 128.08,-104.37 124.64,-110.47"/>
</g>
<!-- Node4&#45;&gt;Node7 -->
<g id="edge8" class="edge">
<title>Node4&#45;&gt;Node7</title>
<path fill="none" stroke="midnightblue" d="M141.14,-103.23C137.37,-95.16 133.46,-85.34 131.5,-76 127.32,-56.12 128.52,-32.06 129.61,-19.53"/>
<polygon fill="midnightblue" stroke="midnightblue" points="138.09,-104.96 145.67,-112.36 144.36,-101.85 138.09,-104.96"/>
</g>
<!-- Node8 -->
<g id="node8" class="node">
<title>Node8</title>
<g id="a_node8"><a xlink:href="Mammal_8cpp.html" target="_top" xlink:title="University of Hawaii, College of Engineering.">
<polygon fill="none" stroke="black" points="140.5,-56.5 140.5,-75.5 238.5,-75.5 238.5,-56.5 140.5,-56.5"/>
<text text-anchor="middle" x="189.5" y="-63.5" font-family="Helvetica,sans-Serif" font-size="10.00">src/Mammal.cpp</text>
</a>
</g>
</g>
<!-- Node4&#45;&gt;Node8 -->
<g id="edge7" class="edge">
<title>Node4&#45;&gt;Node8</title>
<path fill="none" stroke="midnightblue" d="M162.88,-103.86C169.64,-94.5 177.71,-83.33 183.18,-75.75"/>
<polygon fill="midnightblue" stroke="midnightblue" points="159.96,-101.93 156.94,-112.08 165.63,-106.03 159.96,-101.93"/>
</g>
<!-- Node6 -->
<g id="node6" class="node">
<title>Node6</title>
<g id="a_node6"><a xlink:href="Cat_8cpp.html" target="_top" xlink:title="University of Hawaii, College of Engineering.">
<polygon fill="none" stroke="black" points="2,-0.5 2,-19.5 73,-19.5 73,-0.5 2,-0.5"/>
<text text-anchor="middle" x="37.5" y="-7.5" font-family="Helvetica,sans-Serif" font-size="10.00">src/Cat.cpp</text>
</a>
</g>
</g>
<!-- Node5&#45;&gt;Node6 -->
<g id="edge5" class="edge">
<title>Node5&#45;&gt;Node6</title>
<path fill="none" stroke="midnightblue" d="M48.64,-46.4C45.8,-37.36 42.52,-26.94 40.25,-19.75"/>
<polygon fill="midnightblue" stroke="midnightblue" points="45.35,-47.6 51.69,-56.08 52.03,-45.49 45.35,-47.6"/>
</g>
<!-- Node5&#45;&gt;Node7 -->
<g id="edge6" class="edge">
<title>Node5&#45;&gt;Node7</title>
<path fill="none" stroke="midnightblue" d="M75.08,-50.38C88.81,-40.62 106.43,-28.11 118.07,-19.83"/>
<polygon fill="midnightblue" stroke="midnightblue" points="72.84,-47.68 66.71,-56.32 76.89,-53.38 72.84,-47.68"/>
</g>
</g>
</svg>
